<svg version="1.0" xmlns="http://www.w3.org/2000/svg" width="700pt" height="700pt" viewBox="0 0 700 700"><g transform="translate(0.000000,700.000000) scale(0.100000,-0.100000)" fill="#000" stroke="none"><path d="M1431 6921c-278-195-454-468-461-717-1-33-1-1264-1-2736l1-2678h2635 2635v2685 2685h-80-80v4e2 4e2H4818c-695 0-1724 3-2288 6l-1025 6-74-51zm4262-418c5-48 53-260 73-325 5-17-106-18-2235-18-2171 0-2241 1-2241 18 0 35 39 132 74 184 39 59 87 107 159 162l49 36h2057 2058l6-57zm337-3023V1010H3605 1180v2470 2470h2425 2425V3480z"/><path d="M1250 3480V1110h30 30v2370 2370h-30-30V3480z"/><path d="M2571 5078c-38-119-166-437-234-580-127-266-295-542-450-741l-77-98 41-71c23-39 55-99 70-134 16-35 33-64 37-64 13 1 154 191 247 333l90 137 3-1035 2-1035h130 130v1284 1283l49 104c84 179 241 581 241 619 0 8-215 70-242 70-9 0-22-26-37-72z"/><path d="M4890 3606c0-1466 0-1504-19-1527l-19-24-261 2c-144 1-261 0-261-2 0-1 10-24 22-51s32-85 43-129l22-80 124-3c157-4 339 12 418 37 117 36 164 95 181 224 5 42 10 694 10 1565v1492h-130-130V3606z"/><path d="M2870 4855v-125h165 165l-5-22c-2-13-16-90-30-173-49-285-144-633-231-843-74-178-171-353-272-487l-22-31 60-64c34-36 68-77 78-93 9-15 21-26 27-24 19 6 126 152 187 254 37 62 65 1e2 72 96 70-41 317-247 405-337l55-55-61-124c-155-317-360-582-590-765-46-36-83-66-83-66 0-1 25-27 55-59s69-80 86-107l32-49 57 44c281 216 542 575 719 985 108 254 206 580 270 905 41 207 75 445 64 455-4 4-33 16-63 25-49 16-89 18-347 16-161-1-293 1-293 6 0 8 90 479 96 501 3 9 85 12 369 12h365v125 125h-665-665v-125zm904-1019c-40-227-101-480-143-589l-11-29-51 44c-1e2 84-235 190-321 249-49 33-88 62-88 64s15 43 34 92c18 48 48 133 66 188s35 103 37 108c2 4 116 7 252 7h248l-23-134z"/><path d="M4220 3690V2629l123 3 122 3 3 1058 2 1057h-125-125V3690z"/></g></svg>