<?xml version="1.0" standalone="no"?>
<!DOCTYPE svg PUBLIC "-//W3C//DTD SVG 20010904//EN"
 "http://www.w3.org/TR/2001/REC-SVG-20010904/DTD/svg10.dtd">
<svg version="1.0" xmlns="http://www.w3.org/2000/svg"
 width="700.000000pt" height="700.000000pt" viewBox="0 0 700.000000 700.000000"
 preserveAspectRatio="xMidYMid meet">
<metadata>
Created by potrace 1.14, written by Peter Selinger 2001-2017
</metadata>
<g transform="translate(0.000000,700.000000) scale(0.100000,-0.100000)"
fill="#000000" stroke="none">
<path d="M1431 6921 c-278 -195 -454 -468 -461 -717 -1 -33 -1 -1264 -1 -2736
l1 -2678 2635 0 2635 0 0 2685 0 2685 -80 0 -80 0 0 400 0 400 -1262 0 c-695
0 -1724 3 -2288 6 l-1025 6 -74 -51z m4262 -418 c5 -48 53 -260 73 -325 5 -17
-106 -18 -2235 -18 -2171 0 -2241 1 -2241 18 0 35 39 132 74 184 39 59 87 107
159 162 l49 36 2057 0 2058 0 6 -57z m337 -3023 l0 -2470 -2425 0 -2425 0 0
2470 0 2470 2425 0 2425 0 0 -2470z"/>
<path d="M1250 3480 l0 -2370 30 0 30 0 0 2370 0 2370 -30 0 -30 0 0 -2370z"/>
<path d="M2571 5078 c-38 -119 -166 -437 -234 -580 -127 -266 -295 -542 -450
-741 l-77 -98 41 -71 c23 -39 55 -99 70 -134 16 -35 33 -64 37 -64 13 1 154
191 247 333 l90 137 3 -1035 2 -1035 130 0 130 0 0 1284 0 1283 49 104 c84
179 241 581 241 619 0 8 -215 70 -242 70 -9 0 -22 -26 -37 -72z"/>
<path d="M4890 3606 c0 -1466 0 -1504 -19 -1527 l-19 -24 -261 2 c-144 1 -261
0 -261 -2 0 -1 10 -24 22 -51 12 -27 32 -85 43 -129 l22 -80 124 -3 c157 -4
339 12 418 37 117 36 164 95 181 224 5 42 10 694 10 1565 l0 1492 -130 0 -130
0 0 -1504z"/>
<path d="M2870 4855 l0 -125 165 0 165 0 -5 -22 c-2 -13 -16 -90 -30 -173 -49
-285 -144 -633 -231 -843 -74 -178 -171 -353 -272 -487 l-22 -31 60 -64 c34
-36 68 -77 78 -93 9 -15 21 -26 27 -24 19 6 126 152 187 254 37 62 65 100 72
96 70 -41 317 -247 405 -337 l55 -55 -61 -124 c-155 -317 -360 -582 -590 -765
-46 -36 -83 -66 -83 -66 0 -1 25 -27 55 -59 30 -32 69 -80 86 -107 l32 -49 57
44 c281 216 542 575 719 985 108 254 206 580 270 905 41 207 75 445 64 455 -4
4 -33 16 -63 25 -49 16 -89 18 -347 16 -161 -1 -293 1 -293 6 0 8 90 479 96
501 3 9 85 12 369 12 l365 0 0 125 0 125 -665 0 -665 0 0 -125z m904 -1019
c-40 -227 -101 -480 -143 -589 l-11 -29 -51 44 c-100 84 -235 190 -321 249
-49 33 -88 62 -88 64 0 2 15 43 34 92 18 48 48 133 66 188 18 55 35 103 37
108 2 4 116 7 252 7 l248 0 -23 -134z"/>
<path d="M4220 3690 l0 -1061 123 3 122 3 3 1058 2 1057 -125 0 -125 0 0
-1060z"/>
</g>
</svg>
